<svg viewBox="0 0 520 160" xmlns="http://www.w3.org/2000/svg" font-family="'JetBrains Mono',monospace">
  <defs>
    <linearGradient id="bg" x1="0" y1="0" x2="1" y2="1"><stop offset="0%" stop-color="#07090F"/><stop offset="100%" stop-color="#0E1020"/></linearGradient>
    <linearGradient id="g1" x1="0" y1="0" x2="1" y2="0"><stop offset="0%" stop-color="#22D3EE"/><stop offset="100%" stop-color="#38BDF8"/></linearGradient>
    <filter id="glow"><feGaussianBlur stdDeviation="3" result="b"/><feMerge><feMergeNode in="b"/><feMergeNode in="SourceGraphic"/></feMerge></filter>
  </defs>
  <rect width="520" height="160" rx="14" fill="url(#bg)"/>
  <rect width="520" height="160" rx="14" fill="none" stroke="#22D3EE" stroke-width="1" stroke-opacity="0.3"/>
  <g transform="translate(22, 22)" filter="url(#glow)">
    <circle cx="58" cy="58" r="50" fill="none" stroke="#22D3EE" stroke-width="1" stroke-opacity="0.2" stroke-dasharray="3 3"/>
    <circle cx="58" cy="58" r="34" fill="none" stroke="#38BDF8" stroke-width="1.5" stroke-opacity="0.45"/>
    <circle cx="58" cy="58" r="16" fill="#07090F" stroke="url(#g1)" stroke-width="2"/>
    <text x="58" y="64" text-anchor="middle" fill="url(#g1)" font-size="13" font-weight="800" filter="url(#glow)">W</text>
    <!-- Waveform bars -->
    <g fill="#22D3EE" fill-opacity="0.8">
      <rect x="14" y="50" width="5" height="16" rx="2.5"/>
      <rect x="21" y="42" width="5" height="32" rx="2.5"/>
      <rect x="28" y="46" width="5" height="24" rx="2.5"/>
      <rect x="84" y="44" width="5" height="28" rx="2.5"/>
      <rect x="91" y="48" width="5" height="20" rx="2.5"/>
      <rect x="98" y="51" width="5" height="14" rx="2.5"/>
    </g>
  </g>
  <text x="156" y="56" fill="url(#g1)" font-size="28" font-weight="800" letter-spacing="-0.5" filter="url(#glow)">WHISPERFLOW·CUDA</text>
  <text x="157" y="79" fill="#2A4A5A" font-size="12.5" letter-spacing="0.5">Real-Time CUDA Voice Pipeline for JARVIS</text>
  <rect x="156" y="88" width="320" height="1.5" rx="1" fill="url(#g1)" opacity="0.35"/>
  <g transform="translate(156, 102)">
    <rect x="0" y="0" width="72" height="22" rx="5" fill="#22D3EE" fill-opacity="0.1" stroke="#22D3EE" stroke-width="0.7" stroke-opacity="0.5"/>
    <text x="36" y="15" text-anchor="middle" fill="#22D3EE" font-size="10">Python</text>
    <rect x="78" y="0" width="58" height="22" rx="5" fill="#38BDF8" fill-opacity="0.1" stroke="#38BDF8" stroke-width="0.7" stroke-opacity="0.5"/>
    <text x="107" y="15" text-anchor="middle" fill="#38BDF8" font-size="10">CUDA</text>
    <rect x="142" y="0" width="76" height="22" rx="5" fill="#22D3EE" fill-opacity="0.1" stroke="#22D3EE" stroke-width="0.7" stroke-opacity="0.5"/>
    <text x="180" y="15" text-anchor="middle" fill="#22D3EE" font-size="10">Whisper v3</text>
    <rect x="224" y="0" width="60" height="22" rx="5" fill="#38BDF8" fill-opacity="0.1" stroke="#38BDF8" stroke-width="0.7" stroke-opacity="0.5"/>
    <text x="254" y="15" text-anchor="middle" fill="#38BDF8" font-size="10">FastAPI</text>
  </g>
  <text x="156" y="149" fill="#2A4A5A" font-size="10">Turbo31150  ·  MIT  ·  &lt;300ms latency  ·  large-v3  ·  JARVIS voice layer</text>
</svg>
